<?xml version="1.0" encoding="UTF-8" standalone="no"?>
<!-- Created with Inkscape (http://www.inkscape.org/) -->

<svg
   xmlns:dc="http://purl.org/dc/elements/1.1/"
   xmlns:cc="http://creativecommons.org/ns#"
   xmlns:rdf="http://www.w3.org/1999/02/22-rdf-syntax-ns#"
   xmlns:svg="http://www.w3.org/2000/svg"
   xmlns="http://www.w3.org/2000/svg"
   xmlns:sodipodi="http://sodipodi.sourceforge.net/DTD/sodipodi-0.dtd"
   xmlns:inkscape="http://www.inkscape.org/namespaces/inkscape"
   width="162.64835"
   height="57.66877"
   id="svg23200"
   version="1.1"
   inkscape:version="0.48.1 r9760"
   sodipodi:docname="logo-robohow.svg"
   inkscape:export-filename="/work/tenorth/work/doc/pictures/src/robohow/logo-robohow-300.png"
   inkscape:export-xdpi="166.28661"
   inkscape:export-ydpi="166.28661">
  <defs
     id="defs23202" />
  <sodipodi:namedview
     id="base"
     pagecolor="#ffffff"
     bordercolor="#666666"
     borderopacity="1.0"
     inkscape:pageopacity="0.0"
     inkscape:pageshadow="2"
     inkscape:zoom="3.959798"
     inkscape:cx="139.08269"
     inkscape:cy="-1.455391"
     inkscape:document-units="px"
     inkscape:current-layer="layer1"
     showgrid="false"
     fit-margin-top="0"
     fit-margin-left="0"
     fit-margin-right="0"
     fit-margin-bottom="0"
     inkscape:window-width="1920"
     inkscape:window-height="1027"
     inkscape:window-x="0"
     inkscape:window-y="0"
     inkscape:window-maximized="1" />
  <metadata
     id="metadata23205">
    <rdf:RDF>
      <cc:Work
         rdf:about="">
        <dc:format>image/svg+xml</dc:format>
        <dc:type
           rdf:resource="http://purl.org/dc/dcmitype/StillImage" />
        <dc:title />
      </cc:Work>
    </rdf:RDF>
  </metadata>
  <g
     inkscape:label="Layer 1"
     inkscape:groupmode="layer"
     id="layer1"
     transform="translate(-293.62062,-448.37656)">
    <g
       id="g180"
       transform="matrix(1.1672776,0,0,-1.1672776,309.24696,483.57243)">
      <path
         d="M 0,0 C 0.003,-2.523 2.048,-4.565 4.571,-4.571 7.095,-4.565 9.138,-2.523 9.144,0 9.138,2.526 7.095,4.569 4.571,4.573 2.046,4.569 0.003,2.526 0,0 M -3.235,0 C -3.233,4.313 0.259,7.805 4.571,7.807 8.882,7.805 12.376,4.313 12.376,0 c 0,-4.31 -3.494,-7.804 -7.805,-7.804 -4.312,0 -7.804,3.494 -7.806,7.804"
         style="fill:#6f7479;fill-opacity:1;fill-rule:nonzero;stroke:none"
         id="path182"
         inkscape:connector-curvature="0" />
    </g>
    <g
       id="g184"
       transform="matrix(1.1672776,0,0,-1.1672776,335.36993,488.90783)">
      <path
         d="m 0,0 c -2.515,0.006 -4.547,2.032 -4.571,4.541 l 0,0.061 C -4.548,7.114 -2.515,9.14 0,9.144 2.522,9.14 4.566,7.097 4.57,4.571 4.566,2.048 2.522,0.006 0,0 m 0,12.378 c -1.71,-10e-4 -3.288,-0.558 -4.575,-1.49 l -0.002,4.67 c 0,0.893 -0.725,1.616 -1.618,1.616 -0.893,0 -1.617,-0.725 -1.617,-1.618 l 0.008,-10.96 c 0,-0.008 -0.002,-0.016 -0.002,-0.025 0,-0.008 0.002,-0.017 0.002,-0.024 l 0.003,-5.827 c 0,-0.893 0.725,-1.616 1.617,-1.616 0.746,0 1.367,0.508 1.553,1.194 1.297,-0.957 2.895,-1.531 4.631,-1.531 4.311,0 7.802,3.494 7.804,7.804 C 7.802,8.884 4.309,12.376 0,12.378"
         style="fill:#6f7479;fill-opacity:1;fill-rule:nonzero;stroke:none"
         id="path186"
         inkscape:connector-curvature="0" />
    </g>
    <g
       id="g188"
       transform="matrix(1.1672776,0,0,-1.1672776,350.56392,483.57243)">
      <path
         d="M 0,0 C 0.006,-2.523 2.049,-4.565 4.576,-4.571 7.095,-4.565 9.14,-2.523 9.144,0 9.14,2.526 7.095,4.569 4.576,4.573 2.049,4.569 0.006,2.526 0,0 m -3.233,0 c 0,4.313 3.496,7.805 7.809,7.807 C 8.884,7.805 12.376,4.313 12.378,0 12.376,-4.31 8.884,-7.804 4.576,-7.804 0.263,-7.804 -3.233,-4.31 -3.233,0"
         style="fill:#6f7479;fill-opacity:1;fill-rule:nonzero;stroke:none"
         id="path190"
         inkscape:connector-curvature="0" />
    </g>
    <g
       id="g192"
       transform="matrix(1.1672776,0,0,-1.1672776,304.43311,474.95862)">
      <path
         d="m 0,0 0,0.002 c -0.676,0.35 -1.427,0.486 -2.172,0.48 -0.24,0 -0.484,-0.012 -0.741,-0.034 -1.181,-0.118 -2.285,-0.656 -3.22,-1.477 -0.226,0.619 -0.816,1.065 -1.515,1.065 -0.893,0 -1.615,-0.725 -1.615,-1.619 l 0.009,-11.647 c 0,-0.894 0.724,-1.617 1.618,-1.617 0.893,0 1.616,0.725 1.616,1.619 l -0.006,7.836 c 0.718,1.882 2.335,2.475 3.384,2.618 0.472,0.064 1.035,-0.019 1.352,-0.103 0.772,-0.201 1.6,-0.091 1.988,0.709 C 1.085,-1.37 0.773,-0.398 0,0"
         style="fill:#6f7479;fill-opacity:1;fill-rule:nonzero;stroke:none"
         id="path194"
         inkscape:connector-curvature="0" />
    </g>
    <g
       id="g196"
       transform="matrix(1.1672776,0,0,-1.1672776,400.27699,490.26209)">
      <path
         d="m 0,0 c 0.381,0.6 0.7,1.308 0.95,2.101 l 1.692,0 C 1.945,1.205 1.041,0.483 0,0 m -8.634,2.101 1.688,0 c 0.248,-0.788 0.563,-1.498 0.945,-2.096 -1.037,0.481 -1.937,1.203 -2.633,2.096 m 2.683,10.886 C -6.344,12.384 -6.672,11.664 -6.93,10.858 l -1.711,0 c 0.708,0.911 1.629,1.644 2.69,2.129 m 8.599,-2.129 -1.707,0 C 0.684,11.662 0.356,12.382 -0.036,12.985 1.023,12.5 1.942,11.767 2.648,10.858 M 1.583,6.936 C 1.546,8.014 1.409,9.044 1.183,9.988 l 2.047,0 C 3.745,9.077 4.062,8.04 4.132,6.936 l -2.549,0 z m -0.019,-1.388 0.034,0 0,0.475 2.533,0 C 4.061,4.919 3.742,3.882 3.226,2.971 l -2.038,0 c 0.191,0.807 0.32,1.671 0.376,2.577 m -4.125,-2.577 0,3.052 3.278,0 L 0.716,5.997 C 0.684,4.908 0.528,3.888 0.291,2.971 l -2.852,0 z m -4.132,3.052 3.261,0 0,-3.052 -2.848,0 c -0.241,0.928 -0.389,1.957 -0.413,3.052 m -0.875,0.913 -2.556,0 c 0.071,1.104 0.387,2.141 0.901,3.052 l 2.053,0 C -7.396,9.045 -7.532,8.014 -7.568,6.936 m 4.136,3.052 0,-3.052 -3.256,0 c 0.034,1.1 0.185,2.128 0.428,3.052 l 2.828,0 z m 3.704,0 C 0.517,9.063 0.667,8.036 0.701,6.936 l -3.262,0 0,3.052 2.833,0 z m -0.709,1.95 c 0.168,-0.328 0.321,-0.693 0.458,-1.08 l -2.582,0 0,2.755 c 0.323,-0.02 0.642,-0.055 0.953,-0.117 0.422,-0.359 0.823,-0.881 1.171,-1.558 m -3.942,1.559 c 0.309,0.061 0.626,0.096 0.947,0.115 l 0,-2.754 -2.577,0 c 0.136,0.381 0.284,0.743 0.451,1.066 0.35,0.683 0.753,1.211 1.179,1.573 m -5.745,-7.474 2.554,0 C -7.541,4.95 -7.41,3.918 -7.186,2.971 l -2.032,0 c -0.516,0.911 -0.834,1.948 -0.906,3.052 m 4.553,-5.012 c -0.17,0.333 -0.324,0.697 -0.461,1.09 l 2.6,0 0,-2.747 c -0.342,0.021 -0.679,0.059 -1.007,0.126 -0.408,0.363 -0.796,0.875 -1.132,1.531 m 4.011,-1.533 c -0.325,-0.066 -0.661,-0.103 -1.001,-0.124 l 0,2.747 2.584,0 C -0.138,1.639 -0.316,1.207 -0.521,0.831 -0.836,0.254 -1.189,-0.194 -1.56,-0.522 M -2.996,15.17 c -4.798,0 -8.688,-3.888 -8.688,-8.687 0,-4.799 3.89,-8.687 8.688,-8.689 4.798,0.002 8.687,3.89 8.689,8.689 -0.002,4.799 -3.891,8.687 -8.689,8.687"
         style="fill:#6f7479;fill-opacity:1;fill-rule:nonzero;stroke:none"
         id="path198"
         inkscape:connector-curvature="0" />
    </g>
    <g
       id="g200"
       transform="matrix(1.1672776,0,0,-1.1672776,384.13565,490.66166)"
       style="fill:#26768b;fill-opacity:1">
      <path
         d="m 0,0 0,7.07 c 0.005,1.709 -0.469,3.367 -1.557,4.65 -1.082,1.289 -2.747,2.066 -4.629,2.18 -0.137,0.007 -0.28,0.016 -0.433,0.016 -1.224,-0.003 -2.427,-0.355 -3.487,-0.978 l -0.003,4.709 c 0,0.985 -0.8,1.78 -1.781,1.78 -0.983,0 -1.78,-0.798 -1.78,-1.781 l 0.012,-17.648 c 0,-0.982 0.798,-1.779 1.78,-1.777 0.983,0 1.779,0.797 1.779,1.779 l -0.004,6.657 c 0,0.006 10e-4,0.01 10e-4,0.014 0.003,2.261 1.818,3.681 3.483,3.684 0.056,0 0.121,-0.001 0.194,-0.005 1.129,-0.091 1.726,-0.447 2.156,-0.935 0.422,-0.496 0.708,-1.263 0.711,-2.345 l 0,-7.07 c 0,-0.984 0.797,-1.781 1.779,-1.781 0.984,0 1.781,0.797 1.781,1.781 L 0,0 z"
         style="fill:#26768b;fill-opacity:1;fill-rule:nonzero;stroke:none"
         id="path202"
         inkscape:connector-curvature="0" />
    </g>
    <g
       id="g204"
       transform="matrix(1.1672776,0,0,-1.1672776,423.33749,491.39121)"
       style="fill:#26768b;fill-opacity:1">
      <path
         d="M 0,0 -2.881,7.705 -5.763,0 c -0.264,-0.706 -0.943,-1.168 -1.696,-1.156 -0.752,0.011 -1.415,0.495 -1.657,1.208 l -4.103,12.163 c -0.314,0.931 0.188,1.94 1.117,2.255 0.932,0.314 1.941,-0.184 2.255,-1.118 l 2.503,-7.419 2.796,7.475 c 0.259,0.694 0.924,1.156 1.667,1.156 0.742,0 1.406,-0.462 1.667,-1.156 l 2.795,-7.475 2.504,7.419 c 0.314,0.932 1.323,1.432 2.255,1.118 0.931,-0.315 1.429,-1.324 1.116,-2.255 L 3.354,0.052 C 3.113,-0.658 2.449,-1.145 1.697,-1.156 l -0.028,0 C 0.929,-1.156 0.261,-0.696 0,0"
         style="fill:#26768b;fill-opacity:1;fill-rule:nonzero;stroke:none"
         id="path206"
         inkscape:connector-curvature="0" />
    </g>
    <g
       id="g208"
       transform="matrix(1.1672776,0,0,-1.1672776,419.44124,454.96899)"
       style="fill:#26768b;fill-opacity:1">
      <path
         d="M 0,0 C 0,-0.074 0.016,-0.145 0.022,-0.216 4.313,1.047 7.987,2.129 8.014,2.137 8.034,2.14 8.491,2.236 9.002,2.238 9.08,2.238 9.161,2.234 9.234,2.229 9.28,2.227 9.321,2.222 9.367,2.217 9.359,2.315 9.345,2.413 9.345,2.513 9.345,3.331 9.584,4.088 9.978,4.742 7.768,4.091 4.571,3.148 1.459,2.231 0.601,1.852 0,0.999 0,0"
         style="fill:#26768b;fill-opacity:1;fill-rule:nonzero;stroke:none"
         id="path210"
         inkscape:connector-curvature="0" />
    </g>
    <g
       id="g212"
       transform="matrix(1.1672776,0,0,-1.1672776,418.24887,454.96899)"
       style="fill:#26768b;fill-opacity:1">
      <path
         d="m 0,0 c 0,0.586 0.151,1.137 0.408,1.619 -4.193,-1.236 -7.75,-2.285 -7.772,-2.294 -0.816,-0.29 -1.4,-1.066 -1.4,-1.983 0,-0.15 0.017,-0.296 0.047,-0.436 2.403,0.709 5.68,1.675 8.769,2.586 C 0.026,-0.342 0,-0.174 0,0"
         style="fill:#26768b;fill-opacity:1;fill-rule:nonzero;stroke:none"
         id="path214"
         inkscape:connector-curvature="0" />
    </g>
    <g
       id="g216"
       transform="matrix(1.1672776,0,0,-1.1672776,414.14518,460.29925)"
       style="fill:#26768b;fill-opacity:1">
      <path
         d="M 0,0 C 0,-0.075 0.015,-0.144 0.022,-0.216 4.312,1.048 7.985,2.129 8.014,2.138 8.034,2.14 8.493,2.235 9.002,2.237 9.08,2.237 9.158,2.235 9.233,2.229 9.28,2.225 9.319,2.221 9.364,2.216 9.357,2.314 9.343,2.412 9.343,2.513 9.343,3.331 9.582,4.086 9.975,4.74 7.765,4.088 4.57,3.147 1.458,2.23 0.602,1.853 0,0.999 0,0"
         style="fill:#26768b;fill-opacity:1;fill-rule:nonzero;stroke:none"
         id="path218"
         inkscape:connector-curvature="0" />
    </g>
    <g
       id="g220"
       transform="matrix(1.1672776,0,0,-1.1672776,412.95059,460.29925)"
       style="fill:#26768b;fill-opacity:1">
      <path
         d="m 0,0 c 0,0.587 0.151,1.135 0.408,1.62 -4.192,-1.236 -7.748,-2.284 -7.772,-2.295 -0.815,-0.291 -1.398,-1.067 -1.398,-1.981 0.001,-0.151 0.018,-0.297 0.048,-0.439 2.403,0.711 5.678,1.676 8.766,2.586 C 0.026,-0.342 0,-0.174 0,0"
         style="fill:#26768b;fill-opacity:1;fill-rule:nonzero;stroke:none"
         id="path222"
         inkscape:connector-curvature="0" />
    </g>
    <g
       id="g224"
       transform="matrix(1.1672776,0,0,-1.1672776,448.71901,451.98928)"
       style="fill:#26768b;fill-opacity:1">
      <path
         d="m 0,0 c 0.008,0.004 0.018,0.004 0.025,0.008 l -10.606,2.974 c 0,-0.002 -0.366,0.076 -0.811,0.107 -0.049,0.004 -0.098,0.006 -0.149,0.006 -0.013,0 -0.025,-0.001 -0.037,-0.002 -1.656,-0.099 -2.966,-1.456 -2.971,-3.133 0,-0.177 0.019,-0.349 0.046,-0.52 L -3.319,-3.693 C -2.87,-2.065 -1.699,-0.659 0,0"
         style="fill:#26768b;fill-opacity:1;fill-rule:nonzero;stroke:none"
         id="path226"
         inkscape:connector-curvature="0" />
    </g>
    <g
       id="g228"
       transform="matrix(1.1672776,0,0,-1.1672776,443.28615,457.26596)"
       style="fill:#26768b;fill-opacity:1">
      <path
         d="m 0,0 -10.468,2.936 c 0,-0.002 -0.363,0.077 -0.81,0.108 -0.049,0.004 -0.098,0.006 -0.148,0.006 -0.006,0 -0.012,0 -0.018,-10e-4 -1.663,-0.089 -2.984,-1.451 -2.988,-3.135 0,-0.178 0.018,-0.349 0.046,-0.518 L -3.308,-3.708 C -2.863,-2.079 -1.698,-0.666 0,0"
         style="fill:#26768b;fill-opacity:1;fill-rule:nonzero;stroke:none"
         id="path230"
         inkscape:connector-curvature="0" />
    </g>
    <g
       id="g232"
       transform="matrix(1.1672776,0,0,-1.1672776,437.83157,462.55233)"
       style="fill:#26768b;fill-opacity:1">
      <path
         d="m 0,0 -10.332,2.897 c 0,-10e-4 -0.365,0.077 -0.809,0.109 -0.049,0.004 -0.098,0.004 -0.149,0.004 -0.015,0 -0.028,-0.002 -0.042,-0.002 -1.649,-0.099 -2.961,-1.456 -2.964,-3.133 0,-1.246 0.723,-2.319 1.771,-2.831 l 9.032,-4.38 0,1.039 C -3.511,-3.092 -2.144,-0.852 0,0"
         style="fill:#26768b;fill-opacity:1;fill-rule:nonzero;stroke:none"
         id="path234"
         inkscape:connector-curvature="0" />
    </g>
    <g
       id="g236"
       transform="matrix(1.1672776,0,0,-1.1672776,407.6522,465.63067)"
       style="fill:#26768b;fill-opacity:1">
      <path
         d="m 0,0 c 0.002,0.587 0.153,1.136 0.41,1.621 -4.193,-1.237 -7.751,-2.287 -7.773,-2.295 -0.816,-0.291 -1.398,-1.066 -1.398,-1.983 0.002,-1.162 0.943,-2.107 2.109,-2.109 0.184,-0.003 0.76,0.109 0.75,0.111 l 7.509,1.74 C 0.644,-2.299 0,-1.228 0,0"
         style="fill:#26768b;fill-opacity:1;fill-rule:nonzero;stroke:none"
         id="path238"
         inkscape:connector-curvature="0" />
    </g>
    <g
       id="g240"
       transform="matrix(1.1672776,0,0,-1.1672776,420.49342,460.09637)"
       style="fill:#26768b;fill-opacity:1">
      <path
         d="m 0,0 c -2.21,-0.651 -5.404,-1.592 -8.519,-2.511 -0.857,-0.378 -1.459,-1.231 -1.459,-2.23 0.004,-1.347 1.095,-2.438 2.442,-2.44 0.101,0 0.2,0.013 0.3,0.025 l 7.914,1.835 c -0.804,0.787 -1.31,1.879 -1.31,3.092 0,0.819 0.239,1.576 0.632,2.229"
         style="fill:#26768b;fill-opacity:1;fill-rule:nonzero;stroke:none"
         id="path242"
         inkscape:connector-curvature="0" />
    </g>
    <g
       id="g244"
       transform="matrix(1.1672776,0,0,-1.1672776,456.20943,458.21893)"
       style="fill:#26768b;fill-opacity:1">
      <path
         d="m 0,0 0,0.003 c 0,0.595 -0.078,1.182 -0.297,1.742 -0.674,1.747 -2.341,2.816 -4.107,2.816 -0.53,0 -1.068,-0.096 -1.592,-0.302 C -7.609,3.634 -8.627,2.164 -8.775,0.542 L -8.82,0.046 -9.313,0.016 c -0.461,-0.028 -0.899,-0.105 -1.321,-0.267 -1.613,-0.625 -2.63,-2.098 -2.777,-3.72 l -0.043,-0.493 -0.496,-0.031 c -0.459,-0.03 -0.901,-0.105 -1.321,-0.269 -1.651,-0.648 -2.793,-2.302 -2.81,-5.245 l 0,-18.857 1.788,0.851 c 1.003,0.603 2.157,0.937 3.353,0.937 0.76,0 1.537,-0.136 2.289,-0.429 2.555,-0.992 4.124,-3.43 4.122,-6.016 0,-0.776 -0.14,-1.566 -0.437,-2.333 -0.384,-0.991 -0.991,-1.825 -1.735,-2.484 l 0.552,0 c 3.275,-0.002 6.356,2.127 7.629,5.409 0.419,1.081 0.571,2.207 0.571,3.333 l 0,7.189 L 0,0 z"
         style="fill:#26768b;fill-opacity:1;fill-rule:nonzero;stroke:none"
         id="path246"
         inkscape:connector-curvature="0" />
    </g>
    <g
       id="g248"
       transform="matrix(1.1672776,0,0,-1.1672776,421.14429,502.4968)"
       style="fill:#26768b;fill-opacity:1">
      <path
         d="m 0,0 c 0.002,-1.244 0.729,-2.309 1.776,-2.821 0.313,-0.092 0.489,-0.145 0.489,-0.145 l 0,0.001 c 0.009,0 0.106,-0.017 0.244,-0.037 0.141,-0.019 0.325,-0.038 0.497,-0.038 0.051,0 0.099,0.002 0.143,0.004 0.439,0.031 0.797,0.104 0.824,0.11 l 14.111,2.327 0.146,0.036 c 1.587,0.375 2.962,1.492 3.593,3.125 0.238,0.609 0.348,1.233 0.348,1.847 -0.003,2.05 -1.24,3.983 -3.267,4.766 -0.595,0.233 -1.205,0.34 -1.804,0.34 -0.941,0 -1.863,-0.266 -2.718,-0.777 L 1.61,2.657 1.507,2.681 C 0.605,2.127 0,1.138 0,0"
         style="fill:#26768b;fill-opacity:1;fill-rule:nonzero;stroke:none"
         id="path250"
         inkscape:connector-curvature="0" />
    </g>
    <g
       id="g252"
       transform="matrix(1.1672776,0,0,-1.1672776,409.40195,496.23751)"
       style="fill:#26768b;fill-opacity:1">
      <path
         d="m 0,0 -7.41,1.716 c 0,0 -0.139,0.027 -0.298,0.056 -0.167,0.027 -0.359,0.056 -0.443,0.052 -1.116,-0.003 -2.014,-0.903 -2.016,-2.016 -10e-4,-0.872 0.556,-1.615 1.336,-1.893 0.019,-0.009 3.532,-1.045 7.69,-2.27 -0.221,0.457 -0.356,0.964 -0.358,1.506 0,1.182 0.595,2.223 1.499,2.849"
         style="fill:#26768b;fill-opacity:1;fill-rule:nonzero;stroke:none"
         id="path254"
         inkscape:connector-curvature="0" />
    </g>
    <g
       id="g256"
       transform="matrix(1.1672776,0,0,-1.1672776,421.19787,498.97163)"
       style="fill:#26768b;fill-opacity:1">
      <path
         d="m 0,0 -8.291,1.92 c -1.274,-0.081 -2.286,-1.13 -2.29,-2.426 0,-0.845 0.433,-1.586 1.085,-2.024 3.203,-0.945 6.541,-1.929 8.832,-2.604 -0.354,0.629 -0.571,1.342 -0.571,2.114 0,1.177 0.475,2.238 1.235,3.02"
         style="fill:#26768b;fill-opacity:1;fill-rule:nonzero;stroke:none"
         id="path258"
         inkscape:connector-curvature="0" />
    </g>
  </g>
</svg>
